<?xml version="1.0" encoding="UTF-8"?>
<svg version="1.1" xmlns="http://www.w3.org/2000/svg" width="517" height="363">
<path d="M0 0 C0.90894012 -0.00962769 1.81788025 -0.01925537 2.75436401 -0.0291748 C40.80501075 -0.37439886 40.80501075 -0.37439886 54.30859375 9.875 C57.36057012 12.91992793 58.62530506 15.49424628 58.875 19.8125 C58.53040325 24.338204 56.95017734 27.70955253 54.25 31.3125 C53.82203125 31.91449219 53.3940625 32.51648438 52.953125 33.13671875 C33.50546381 57.84727794 -5.51700048 71.8693613 -33.75 83.3125 C-34.40931519 83.58018188 -35.06863037 83.84786377 -35.7479248 84.12365723 C-56.56142918 92.56539091 -77.43584318 100.6937816 -98.79266357 107.67242432 C-100.85510239 108.34686991 -102.9160709 109.02570014 -104.97705078 109.70458984 C-182.42156235 135.14097001 -263.27902853 153.84333342 -344.75 159.3125 C-345.80026367 159.38307617 -346.85052734 159.45365234 -347.93261719 159.52636719 C-353.53663121 159.88650274 -359.13677959 160.15352279 -364.75 160.3125 C-365.42369629 160.33441406 -366.09739258 160.35632813 -366.79150391 160.37890625 C-383.66394984 160.87093384 -405.23409596 161.05744257 -419.75 151.3125 C-423.05089987 147.5563036 -423.38459891 143.76807132 -423.2265625 138.93359375 C-421.308129 128.3822095 -410.27702645 120.3298728 -402.05859375 114.53125 C-379.91803393 99.68374353 -356.03456911 88.18921261 -331.75 77.3125 C-330.66332031 76.81580811 -330.66332031 76.81580811 -329.5546875 76.30908203 C-326.74802427 75.05180846 -324.86785772 74.3125 -321.75 74.3125 C-322.35940166 78.26285667 -323.56832796 81.34761234 -325.4375 84.875 C-326.15486328 86.26912109 -326.15486328 86.26912109 -326.88671875 87.69140625 C-331.29073549 93.88657446 -338.92057911 96.35573982 -345.625 99.4375 C-367.10594695 109.20506923 -367.10594695 109.20506923 -383.75 125.3125 C-384.41680368 128.26970628 -384.41680368 128.26970628 -383.75 131.3125 C-375.27263721 139.13775796 -362.20608905 137.67686125 -351.4375 137.625 C-350.61444366 137.62251251 -349.79138733 137.62002502 -348.94338989 137.61746216 C-333.71592828 137.54666584 -318.82941568 136.50351133 -303.75 134.3125 C-302.96967407 134.20079468 -302.18934814 134.08908936 -301.38537598 133.97399902 C-252.91436211 127.02006429 -205.16725432 116.30387864 -158.22753906 102.34423828 C-155.20427716 101.44727782 -152.17738822 100.56390484 -149.14884949 99.68496704 C-70.60922296 77.23475232 -70.60922296 77.23475232 1 39.125 C1.56058105 38.73320557 2.12116211 38.34141113 2.69873047 37.93774414 C6.99432842 34.79774472 11.00721999 31.12946802 13.1875 26.1875 C13.27266606 23.6325182 12.64884216 22.45214911 11.25 20.3125 C8.94272786 18.99083419 8.94272786 18.99083419 6.1875 18.125 C5.28902344 17.80144531 4.39054687 17.47789062 3.46484375 17.14453125 C-18.01823099 11.58451312 -43.1972219 16.15249341 -64.75 19.3125 C-65.57220849 18.08980619 -66.38233234 16.85898216 -67.1875 15.625 C-67.63996094 14.94050781 -68.09242188 14.25601563 -68.55859375 13.55078125 C-69.84995069 11.12472378 -70.26506428 9.00204307 -70.75 6.3125 C-47.03856119 2.37825088 -24.02621373 0.14278236 0 0 Z " fill="#BFBFBF" transform="translate(437.75,125.6875)"/>
<path d="M0 0 C9.57772677 8.08753665 14.92091399 18.70224523 20.5234375 29.74609375 C24.62872528 37.74392948 28.80223502 45.68910333 33.1484375 53.55859375 C39.87234319 65.76680872 46.2050698 78.17304744 52.57279968 90.56915283 C55.592385 96.4426928 58.66010496 102.28983106 61.74609375 108.12866211 C65.52458093 115.27932188 69.26262837 122.45086603 72.99023438 129.62817383 C75.2483658 133.96843527 77.51982716 138.29742777 79.875 142.5859375 C80.25253418 143.27655273 80.63006836 143.96716797 81.01904297 144.67871094 C82.00831116 146.47976763 83.00764037 148.27528814 84.0078125 150.0703125 C85.3359375 152.93359375 85.3359375 152.93359375 85.3359375 156.93359375 C81.7352916 158.44214714 78.12987791 159.93895199 74.5234375 161.43359375 C73.49927734 161.86285156 72.47511719 162.29210937 71.41992188 162.734375 C70.43701172 163.14042969 69.45410156 163.54648438 68.44140625 163.96484375 C67.53543701 164.34189453 66.62946777 164.71894531 65.69604492 165.10742188 C63.3359375 165.93359375 63.3359375 165.93359375 60.3359375 165.93359375 C50.95630732 148.57091031 41.60549283 131.19789487 32.5859375 113.64453125 C31.21121416 110.96990976 29.83623813 108.29541844 28.4609375 105.62109375 C28.11470337 104.9477298 27.76846924 104.27436584 27.41174316 103.58059692 C22.66034179 94.34786713 17.80134238 85.18744342 12.78271484 76.09643555 C9.07695588 69.35954935 5.52233366 62.5496295 2.0032959 55.71386719 C-0.53901641 50.78012364 -3.10081129 45.85648109 -5.6640625 40.93359375 C-6.08204102 40.12728516 -6.50001953 39.32097656 -6.93066406 38.49023438 C-12.70327412 27.45005451 -18.63584649 20.13894747 -30.6640625 15.93359375 C-40.06680086 13.03295604 -50.02258259 14.59935148 -58.6640625 18.93359375 C-70.38982056 25.63111875 -75.26677308 38.73739972 -80.9921875 50.33203125 C-81.78861269 51.93304417 -82.58564213 53.53375663 -83.38323975 55.13418579 C-85.47568675 59.33611242 -87.56125895 63.54141069 -89.6449585 67.74768066 C-92.96238774 74.44189007 -96.28983609 81.13112033 -99.61818695 87.81990433 C-100.7623751 90.12190271 -101.90333528 92.4254761 -103.04376221 94.7293396 C-106.80267171 102.30678628 -110.64040847 109.83320006 -114.60009766 117.30786133 C-119.28941181 126.16188071 -123.79914505 135.09762025 -128.25506973 144.07100868 C-129.59151303 146.76174734 -130.93110118 149.45090099 -132.27145386 152.13969421 C-136.07380638 159.76846773 -139.8714043 167.39960114 -143.66552734 175.0324707 C-146.00779222 179.74400852 -148.3541012 184.45351493 -150.70278549 189.1618557 C-151.58529782 190.93301306 -152.46630061 192.70492355 -153.3456459 194.47765541 C-167.26260363 222.53213488 -167.26260363 222.53213488 -170.6640625 225.93359375 C-172.11559576 226.16076916 -173.57659928 226.32818399 -175.0390625 226.46875 C-175.94269531 226.55576172 -176.84632813 226.64277344 -177.77734375 226.73242188 C-178.72996094 226.81943359 -179.68257812 226.90644531 -180.6640625 226.99609375 C-182.04658203 227.13241211 -182.04658203 227.13241211 -183.45703125 227.27148438 C-189.2204848 227.81206218 -194.87586361 228.02255172 -200.6640625 227.93359375 C-200.13522804 223.02511617 -198.51501124 219.3483202 -196.1015625 215.12109375 C-193.1194658 209.72619751 -190.36185693 204.28497207 -187.7890625 198.68359375 C-184.60531069 191.79279824 -181.15828997 185.07768481 -177.59082031 178.37866211 C-172.03400624 167.91784323 -166.80515442 157.29179413 -161.546875 146.67871094 C-157.53260375 138.57848501 -153.44749229 130.52876957 -149.15966797 122.5690918 C-146.73869749 118.05006202 -144.42221662 113.48157191 -142.13330078 108.89453125 C-141.78595194 108.19912987 -141.4386031 107.50372849 -141.08072853 106.78725433 C-137.92589043 100.46693941 -134.78450616 94.13995703 -131.64476204 87.81213379 C-127.93543772 80.33668568 -124.21835018 72.86511836 -120.49837303 65.39496613 C-118.01096848 60.39918314 -115.52663296 55.40191927 -113.04882812 50.40136719 C-110.62816151 45.51645806 -108.19961295 40.63554186 -105.76564407 35.75724792 C-104.84669122 33.91199663 -103.93053841 32.06534794 -103.01734543 30.21723938 C-101.74090665 27.63515398 -100.45439957 25.05831855 -99.16552734 22.48242188 C-98.7975856 21.73215729 -98.42964386 20.9818927 -98.05055237 20.20889282 C-95.47866154 15.10455922 -92.57874598 10.13805112 -88.6640625 5.93359375 C-88.0040625 5.93359375 -87.3440625 5.93359375 -86.6640625 5.93359375 C-86.4371875 5.35480469 -86.2103125 4.77601562 -85.9765625 4.1796875 C-81.29575868 -3.83061665 -69.07791988 -9.52051388 -60.39453125 -12 C-57.15839539 -12.77297417 -53.93732587 -13.47053543 -50.6640625 -14.06640625 C-49.55804688 -14.27136719 -48.45203125 -14.47632813 -47.3125 -14.6875 C-29.89534873 -16.49634762 -13.60604692 -10.55366396 0 0 Z " fill="#C1C1C1" transform="translate(298.6640625,29.06640625)"/>
<path d="M0 0 C6.53065745 5.92702317 9.89865106 13.32478422 13.4375 21.25 C14.03736668 22.56558106 14.63830679 23.88067311 15.24023438 25.1953125 C17.18273217 29.45352079 19.09469173 33.72504374 21 38 C21.32542786 38.72985107 21.65085571 39.45970215 21.98614502 40.21166992 C25.00282829 46.98197307 28.01110777 53.75597506 31.00170898 60.5378418 C34.30180732 68.01037173 37.64901724 75.45506589 41.125 82.84765625 C41.45435547 83.5483725 41.78371094 84.24908875 42.12304688 84.97103882 C43.68403805 88.2856622 45.25427997 91.59558134 46.8359375 94.90039062 C47.65964844 96.63772461 47.65964844 96.63772461 48.5 98.41015625 C48.9846875 99.42215088 49.469375 100.43414551 49.96875 101.47680664 C51 104 51 104 51 107 C42.75 109.64 34.5 112.28 26 115 C23.03764824 112.03764824 21.89614554 110.03386074 20.1796875 106.28515625 C19.38425537 104.56002808 19.38425537 104.56002808 18.57275391 102.80004883 C18.00664274 101.55428699 17.44072953 100.30843519 16.875 99.0625 C16.28484798 97.77540285 15.69418572 96.48853954 15.10302734 95.2019043 C11.20666597 86.70751565 7.36000169 78.19045556 3.54296875 69.66015625 C0.03941473 61.84249147 -3.51550675 54.04802128 -7.0625 46.25 C-7.40649841 45.49361237 -7.75049683 44.73722473 -8.10491943 43.95791626 C-10.06944055 39.63838062 -12.03448303 35.31908258 -14 31 C-16.59614308 34.16759104 -18.1778938 37.36934728 -19.79296875 41.125 C-20.18702911 42.03413651 -20.18702911 42.03413651 -20.58905029 42.9616394 C-21.15944744 44.27892587 -21.72748512 45.59723596 -22.29342651 46.91644287 C-23.84616335 50.53495518 -25.41684443 54.14569067 -26.984375 57.7578125 C-27.31239609 58.51506622 -27.64041718 59.27231995 -27.9783783 60.05252075 C-31.57657291 68.35110009 -35.25406462 76.61398765 -38.9375 84.875 C-43.07754702 94.16032242 -47.20487637 103.45042426 -51.27734375 112.765625 C-51.97202727 114.35175124 -52.66676919 115.93785191 -53.36157227 117.52392578 C-54.36192774 119.80769782 -55.36070129 122.09208894 -56.35421753 124.37884521 C-57.26072873 126.46530287 -58.17277373 128.54925981 -59.0859375 130.6328125 C-59.6020459 131.81762207 -60.1181543 133.00243164 -60.64990234 134.22314453 C-62 137 -62 137 -64 139 C-66.05122491 139.5802364 -68.12891627 140.06837594 -70.21484375 140.5078125 C-71.45814453 140.77207031 -72.70144531 141.03632813 -73.98242188 141.30859375 C-74.63138428 141.44249512 -75.28034668 141.57639648 -75.94897461 141.71435547 C-77.92807432 142.12305353 -79.90453607 142.54294586 -81.88085938 142.96484375 C-91.56038331 145 -91.56038331 145 -95 145 C-94.5256459 138.47539362 -92.12218599 133.41425939 -89.3125 127.5625 C-88.29692792 125.39702799 -87.2840401 123.23029566 -86.2734375 121.0625 C-85.4685791 119.33773437 -85.4685791 119.33773437 -84.64746094 117.578125 C-81.82338481 111.44450618 -79.13096848 105.25420803 -76.4375 99.0625 C-75.85473921 97.7248168 -75.27189279 96.38717091 -74.68896484 95.04956055 C-73.77400498 92.94993818 -72.85913191 90.85027857 -71.94473267 88.75041199 C-69.49484347 83.12700071 -67.03108666 77.50975713 -64.5625 71.89453125 C-64.18353577 71.03237 -63.80457153 70.17020874 -63.41412354 69.28192139 C-61.87048108 65.77049973 -60.32659521 62.25918588 -58.78161621 58.74835205 C-54.8656653 49.84859591 -50.96239351 40.94457807 -47.140625 32.00390625 C-46.8426149 31.3085376 -46.5446048 30.61316895 -46.23756409 29.89672852 C-44.8658289 26.69594156 -43.50000356 23.49312779 -42.14624023 20.28466797 C-37.39467805 9.17818197 -33.18552394 0.48642686 -21.625 -4.4375 C-13.73643983 -5.66158692 -6.61769084 -4.56398074 0 0 Z " fill="#C2C2C2" transform="translate(274,101)"/>
<path d="M0 0 C2.11590888 1.59224008 2.89711963 2.86993465 4.02685547 5.25708008 C4.41341309 6.0546875 4.7999707 6.85229492 5.19824219 7.67407227 C5.60316895 8.53806641 6.0080957 9.40206055 6.42529297 10.29223633 C7.31404818 12.13038114 8.20471907 13.96760077 9.09716797 15.80395508 C9.77295898 17.20266846 9.77295898 17.20266846 10.46240234 18.62963867 C12.44547065 22.66887379 14.55588053 26.63585677 16.67529297 30.60473633 C20.6165607 38.05023286 24.4888902 45.52940815 28.30029297 53.04223633 C28.8170459 54.04609375 29.33379883 55.04995117 29.86621094 56.08422852 C36.32735943 68.90318158 38.10020641 82.30134816 34.23779297 96.29223633 C29.56824065 109.3572207 19.84950378 119.38115533 7.41748047 125.38208008 C-4.71288835 129.89023207 -18.88542087 130.19411025 -31.10205078 125.80786133 C-45.35200655 119.12314059 -53.19499345 109.47840216 -59.69970703 95.35473633 C-60.19817139 94.29528809 -60.69663574 93.23583984 -61.21020508 92.14428711 C-62.89041065 88.55549352 -64.54950353 84.95738754 -66.19970703 81.35473633 C-66.66234955 80.34509827 -66.66234955 80.34509827 -67.13433838 79.31506348 C-70.05763364 72.93005414 -72.97073694 66.54044238 -75.85986328 60.13989258 C-76.30753555 59.14859344 -76.30753555 59.14859344 -76.76425171 58.13726807 C-77.35486991 56.82839593 -77.94458522 55.51911596 -78.53335571 54.20941162 C-80.05199346 50.84278663 -81.60269274 47.4958799 -83.20507812 44.16821289 C-83.5306218 43.48783966 -83.85616547 42.80746643 -84.1915741 42.10647583 C-84.81326263 40.81165224 -85.44126353 39.51983364 -86.07661438 38.23165894 C-87.66011964 34.92571584 -88.19970703 33.11832495 -88.19970703 29.35473633 C-84.64348055 28.14784784 -81.07892865 26.96770955 -77.51220703 25.79223633 C-76.00110352 25.27886719 -76.00110352 25.27886719 -74.45947266 24.75512695 C-73.48300781 24.43608398 -72.50654297 24.11704102 -71.50048828 23.78833008 C-70.60499268 23.48983154 -69.70949707 23.19133301 -68.78686523 22.88378906 C-65.78982099 22.27091798 -64.06660817 22.27033494 -61.19970703 23.35473633 C-59.70507812 25.38232422 -59.70507812 25.38232422 -58.47314453 28.07739258 C-58.00432861 29.07883301 -57.5355127 30.08027344 -57.05249023 31.11206055 C-56.32098755 32.74812256 -56.32098755 32.74812256 -55.57470703 34.41723633 C-54.7958313 36.09970459 -54.7958313 36.09970459 -54.0012207 37.81616211 C-52.3831267 41.32125551 -50.79046201 44.83716524 -49.19970703 48.35473633 C-48.23131266 50.4661745 -47.26132597 52.57688328 -46.28955078 54.68676758 C-44.45701199 58.67174131 -42.62841125 62.65846586 -40.80517578 66.64770508 C-40.37124512 67.59693848 -39.93731445 68.54617188 -39.49023438 69.52416992 C-38.63345962 71.40336903 -37.77959178 73.28389634 -36.92871094 75.16577148 C-35.7375586 77.79605711 -34.53267647 80.41964081 -33.32470703 83.04223633 C-32.97964111 83.81422363 -32.6345752 84.58621094 -32.27905273 85.3815918 C-29.61971676 91.10691759 -26.61476107 94.98147031 -21.01220703 98.16723633 C-14.70723942 100.1310787 -8.92589193 100.46219254 -2.82470703 97.66723633 C2.33445763 94.7131985 4.83872843 90.87980978 6.80029297 85.35473633 C8.7375158 75.87504755 4.42357345 68.65550989 0.02832031 60.64233398 C-1.72721667 57.3720792 -3.35014848 54.04071683 -4.98413086 50.70849609 C-8.58014404 43.38252081 -12.33604555 36.24382052 -16.52783203 29.23754883 C-18.50553274 25.82740135 -20.34553571 22.36544979 -22.13720703 18.85473633 C-22.72373047 17.71004883 -23.31025391 16.56536133 -23.91455078 15.38598633 C-25.19970703 12.35473633 -25.19970703 12.35473633 -25.19970703 8.35473633 C-21.45971897 6.78793637 -17.70648599 5.25578752 -13.94970703 3.72973633 C-12.88623047 3.2837207 -11.82275391 2.83770508 -10.72705078 2.37817383 C-9.70224609 1.96567383 -8.67744141 1.55317383 -7.62158203 1.12817383 C-6.67895508 0.74064941 -5.73632812 0.353125 -4.76513672 -0.04614258 C-2.19970703 -0.64526367 -2.19970703 -0.64526367 0 0 Z " fill="#C1C1C1" transform="translate(402.19970703125,217.645263671875)"/>
<path d="M0 0 C-0.57743673 5.4459468 -2.4977765 9.7399882 -4.82421875 14.6171875 C-5.20810257 15.43317413 -5.59198639 16.24916077 -5.98750305 17.08987427 C-6.80000987 18.8112039 -7.61635101 20.53072823 -8.4362793 22.24853516 C-9.67753135 24.85407459 -10.90098577 27.46744618 -12.12304688 30.08203125 C-12.91820402 31.76092235 -13.71439534 33.4393241 -14.51171875 35.1171875 C-14.87134201 35.8882785 -15.23096527 36.65936951 -15.60148621 37.4538269 C-22.10966033 50.97071205 -31.98160638 60.43517624 -46 66 C-59.48991732 70.00159627 -73.36057612 69.3845295 -86 63 C-97.95093747 55.77811447 -106.33000852 45.03826935 -109.75 31.625 C-112.12269939 20.42638037 -112.12269939 20.42638037 -111 15 C-107.56238884 12.70825923 -106.07928385 12.70475953 -102.01953125 12.5859375 C-100.85615234 12.54726563 -99.69277344 12.50859375 -98.49414062 12.46875 C-97.27919922 12.4378125 -96.06425781 12.406875 -94.8125 12.375 C-93.58595703 12.33632813 -92.35941406 12.29765625 -91.09570312 12.2578125 C-88.06395344 12.16343897 -85.03221159 12.07785451 -82 12 C-82.01450195 12.59458008 -82.02900391 13.18916016 -82.04394531 13.80175781 C-82.14696231 21.0394375 -81.0242077 26.49656359 -77.375 32.8125 C-72.85732994 36.9735119 -67.58773449 39.19142422 -61.4375 39.5 C-55.09156309 39.17882693 -49.73589199 36.3358357 -45.32519531 31.79516602 C-41.56527006 26.70181112 -39.52349636 20.27089811 -37.10546875 14.46289062 C-36.64785156 13.40908203 -36.19023437 12.35527344 -35.71875 11.26953125 C-35.31591797 10.30635986 -34.91308594 9.34318848 -34.49804688 8.35083008 C-32.61714481 5.39919937 -31.33799598 4.9186559 -28 4 C-26.14448468 3.59272033 -24.27677567 3.23842491 -22.40234375 2.9296875 C-21.35369141 2.75566406 -20.30503906 2.58164062 -19.22460938 2.40234375 C-18.13986328 2.22832031 -17.05511719 2.05429687 -15.9375 1.875 C-14.84888672 1.69324219 -13.76027344 1.51148438 -12.63867188 1.32421875 C-8.3493514 0.62208998 -4.35670505 0 0 0 Z " fill="#C1C1C1" transform="translate(194,278)"/>
<path d="M0 0 C0 3 0 3 -2.625 5.91796875 C-3.74249406 7.01550756 -4.86785643 8.10507895 -6 9.1875 C-6.57234375 9.74630859 -7.1446875 10.30511719 -7.734375 10.88085938 C-9.14962788 12.26073093 -10.57397155 13.63126734 -12 15 C-12.66 14.67 -13.32 14.34 -14 14 C-12.60919892 12.41224451 -11.21211596 10.82999061 -9.8125 9.25 C-8.64654297 7.92742187 -8.64654297 7.92742187 -7.45703125 6.578125 C-5.11544754 4.12113732 -2.69841735 2.05137234 0 0 Z " fill="#9B9B9B" transform="translate(32,243)"/>
<path d="M0 0 C0.66 0.33 1.32 0.66 2 1 C-0.64 3.64 -3.28 6.28 -6 9 C-6.66 8.34 -7.32 7.68 -8 7 C-5.36 4.69 -2.72 2.38 0 0 Z " fill="#9C9A99" transform="translate(247,99)"/>
<path d="M0 0 C0.33 0.66 0.66 1.32 1 2 C0.22265625 3.9453125 0.22265625 3.9453125 -0.9375 6.125 C-1.31777344 6.84945312 -1.69804687 7.57390625 -2.08984375 8.3203125 C-2.39019531 8.87460938 -2.69054687 9.42890625 -3 10 C-3.33 10 -3.66 10 -4 10 C-3.38461538 3.47692308 -3.38461538 3.47692308 -1.4375 1.0625 C-0.7259375 0.5365625 -0.7259375 0.5365625 0 0 Z " fill="#59595A" transform="translate(158,194)"/>
<path d="M0 0 C0 3 0 3 -1.875 5.1875 C-4 7 -4 7 -6 7 C-4.60667426 3.63279613 -3.0210714 2.0140476 0 0 Z " fill="#999797" transform="translate(218,28)"/>
</svg>
