<?xml version="1.0" encoding="UTF-8"?>
<svg version="1.1" xmlns="http://www.w3.org/2000/svg" width="1024" height="1024">
<path d="M0 0 C4.05645324 2.10334613 6.31333741 3.77179104 8 8 C9.39124342 17.84711254 6.6854207 28.31886324 5 38 C5.54188965 37.80365967 6.0837793 37.60731934 6.64208984 37.4050293 C39.07488978 25.7848126 74.73336491 23.25680224 107.0625 37.5 C112.12967129 39.94622062 117.0242902 42.66482855 121.93896484 45.40258789 C131.74103415 50.85160569 141.24946802 55.74399403 152 59 C153.09957031 59.33644531 154.19914062 59.67289062 155.33203125 60.01953125 C181.46102663 66.55924552 210.5487107 62.27563207 233.6875 48.75 C235.33298828 47.75226563 235.33298828 47.75226563 237.01171875 46.734375 C239.63732641 45.21049291 242.15347874 44.03509864 245 43 C241.60778672 69.2896529 222.47059366 97.35931716 202.11376953 113.49511719 C186.15857233 125.3348375 168.37679042 131.50582468 149 135 C154.7575546 139.5495773 160.74408068 143.38566582 167.125 147 C168.0442627 147.52255371 168.96352539 148.04510742 169.91064453 148.58349609 C179.2558122 153.82064636 188.64437795 158.17102054 199 161 C190.02348619 170.75433819 174.10557796 174.93052556 161.203125 175.91015625 C160.47609375 175.93980469 159.7490625 175.96945312 159 176 C158.14921875 176.03996094 157.2984375 176.07992187 156.421875 176.12109375 C128.89663423 176.76034115 105.40840825 168.56183752 81.375 155.9375 C53.10986172 141.0959988 25.53033747 133.41141791 -6 143 C-8.19412592 143.59209074 -8.19412592 143.59209074 -10 145 C-10.9304813 147.71903499 -10.9304813 147.71903499 -11.28027344 151.01025391 C-11.46015808 152.27141022 -11.64004272 153.53256653 -11.82537842 154.8319397 C-12.00376602 156.21343049 -12.18175549 157.59497274 -12.359375 158.9765625 C-12.55385276 160.3863995 -12.74993929 161.79601545 -12.9475708 163.20541382 C-13.46339685 166.9154659 -13.95728824 170.62812187 -14.44671631 174.34173584 C-14.94999734 178.13067526 -15.47390167 181.91675408 -15.99609375 185.703125 C-17.01763653 193.13276659 -18.01603065 200.56527874 -19 208 C-18.2787645 208.18719604 -17.55752899 208.37439209 -16.81443787 208.56726074 C-11.63103001 209.94118064 -6.64096353 211.36376098 -1.72265625 213.53125 C-0.64330811 214.005625 0.43604004 214.48 1.5480957 214.96875 C3.22585083 215.72671875 3.22585083 215.72671875 4.9375 216.5 C6.12625732 217.03625 7.31501465 217.5725 8.53979492 218.125 C28.92956131 227.44289661 47.15410967 239.2176514 65.66503906 251.74609375 C104.89077718 278.28188388 146.64999324 300.75231701 195.6640625 292.77734375 C200.68998586 291.60619767 205.427456 289.88800474 210.234375 288.0234375 C213 287 213 287 215 287 C215 286.34 215 285.68 215 285 C214.34 285.33 213.68 285.66 213 286 C208.17223138 286.25162249 203.33373406 286.19560367 198.5 286.1875 C197.79338226 286.18656342 197.08676453 286.18562683 196.35873413 286.18466187 C167.65717055 286.10184732 142.14214666 279.88419294 116 268 C116 267.67 116 267.34 116 267 C117.11745605 267.01047363 118.23491211 267.02094727 119.38623047 267.03173828 C123.62447771 267.06857462 127.86271161 267.09112605 132.10107422 267.10986328 C133.91815589 267.11977871 135.73522225 267.13331512 137.55224609 267.15087891 C170.92518044 267.46484674 196.43388863 261.18544414 224.07739258 242.19580078 C226 241 226 241 229 240 C234.10796508 245.59021997 237.75422002 251.98719137 241.5625 258.5 C242.08549179 259.38972504 242.08549179 259.38972504 242.61904907 260.29742432 C260.70589062 291.07565463 275.94044675 319.22162567 266.59082031 355.9765625 C263.42132493 366.83142932 258.2133755 376.30072317 251 385 C250.31164062 385.85078125 249.62328125 386.7015625 248.9140625 387.578125 C232.44151225 406.96459208 208.72571839 416.19977638 184 419 C179.63682227 419.24951927 175.2905683 419.27534589 170.92105103 419.26069641 C169.06406714 419.26643473 169.06406714 419.26643473 167.16956842 419.27228898 C163.77733671 419.28074415 160.38532486 419.28041553 156.99310017 419.27610838 C153.31746632 419.27362106 149.64185692 419.28267994 145.9662323 419.29014587 C138.7825013 419.30283927 131.59880778 419.30469332 124.41506745 419.30234561 C118.57123638 419.3005564 112.72741661 419.30232496 106.88358688 419.30657005 C106.04916885 419.30716524 105.21475082 419.30776043 104.3550474 419.30837366 C102.65946957 419.30958551 100.96389175 419.31079965 99.26831393 419.31201603 C83.39819207 419.32287075 67.5280915 419.3207388 51.65796845 419.31463119 C37.16845511 419.30946289 22.67900903 419.32071887 8.18950899 419.33972941 C-6.72266148 419.35914309 -21.63480019 419.36735769 -36.54698336 419.36360615 C-44.90530082 419.36169959 -53.26356105 419.36412842 -61.62186813 419.37832069 C-68.73681227 419.39028053 -75.85166394 419.39158804 -82.96660946 419.37953053 C-86.58992579 419.37367418 -90.21307338 419.37245144 -93.8363781 419.38453293 C-122.41455419 419.47316752 -147.3269231 416.61215706 -169 396 C-185.75152272 378.19969637 -195.93942076 354.3991258 -195.24609375 329.765625 C-191.67409526 289.62316573 -162.74491255 242.32135759 -133 216 C-116.24045221 203.11203767 -95.62431355 197.8293886 -74.75 197.8125 C-73.99976563 197.80025391 -73.24953125 197.78800781 -72.4765625 197.77539062 C-62.94347292 197.75240086 -53.46537898 198.97341313 -44 200 C-42.68601888 190.71302427 -41.37298197 181.42591552 -40.06072712 172.13869572 C-39.4008406 167.4689606 -38.74053104 162.79928595 -38.07937622 158.12973022 C-34.90753746 135.72726345 -31.76026652 113.3217235 -28.66975403 90.90787888 C-27.72465704 84.0589857 -26.77557404 77.21064333 -25.82670212 70.36227226 C-24.90399485 63.69841588 -23.98834892 57.03363484 -23.0775423 50.36814213 C-22.50424206 46.18496602 -21.92436319 42.00272054 -21.34275627 37.82069206 C-21.07385971 35.87711817 -20.80771005 33.9331619 -20.54455757 31.98880196 C-17.18428983 7.18428983 -17.18428983 7.18428983 -12.4375 2.4375 C-8.24376704 -0.03572713 -4.85409767 -0.65864151 0 0 Z " fill="#2B9A46" transform="translate(474,377)"/>
<path d="M0 0 C2.01168604 -0.00407063 4.02336983 -0.00941526 6.03504944 -0.01593018 C11.47310314 -0.02955197 16.91098518 -0.02432613 22.3490417 -0.01479292 C28.05558005 -0.00716861 33.76210423 -0.01424971 39.46864319 -0.01895142 C49.05073672 -0.02440135 58.63276078 -0.01723782 68.21484375 -0.00292969 C79.27173591 0.01339065 90.32846204 0.00810966 101.38535017 -0.0084089 C110.89992021 -0.02205106 120.41444046 -0.02392996 129.92901713 -0.0160929 C135.60223615 -0.01143078 141.2753773 -0.01075109 146.94859123 -0.02070236 C152.28471658 -0.02940935 157.62062926 -0.02328218 162.9567318 -0.00601959 C164.90772907 -0.00207443 166.85874443 -0.00315475 168.80973434 -0.00980759 C186.77751076 -0.06539825 200.99975862 2.00439784 214.66040039 14.64208984 C223.3644204 24.72269292 225.7686195 36.32540809 225.20629883 49.28662109 C224.2072256 61.29782545 215.68524125 70.71175905 207.03149414 78.38818359 C204.6973667 80.17242599 202.34995217 81.92076915 199.94946289 83.61474609 C197.24012057 86.11992209 196.20780823 88.58546831 195.84593773 92.28539658 C195.76405131 94.61073801 195.74987472 96.92809477 195.75683594 99.25488281 C195.75172501 100.13860062 195.74661407 101.02231842 195.74134827 101.93281555 C195.72745793 104.8529032 195.72841014 107.77275433 195.73071289 110.69287109 C195.72682263 112.73487434 195.72248727 114.77687677 195.71772766 116.81887817 C195.71026441 121.10437639 195.71055529 125.38979225 195.71582031 129.67529297 C195.72158257 135.12972551 195.70476335 140.5838149 195.68147564 146.03819084 C195.66663057 150.26107714 195.66588169 154.48388315 195.66898537 158.70679092 C195.66847647 160.71514688 195.66332111 162.72350785 195.65317345 164.73183823 C195.55337301 187.26703395 199.87936758 203.79151099 211.57861328 223.22875977 C216.34120466 231.14768014 220.87532991 239.17630826 225.34399414 247.26318359 C225.68017761 247.8710672 226.01636108 248.47895081 226.36273193 249.10525513 C228.25642188 252.53064536 230.1459007 255.95833042 232.03149414 259.38818359 C225.91736382 263.46427047 218.30040156 261.39725052 211.40649414 260.13818359 C200.29069572 257.69404719 193.62461329 253.9185217 187.03149414 244.38818359 C171.07388904 219.17586942 163.54652966 198.13724009 163.59790039 168.38818359 C163.59333079 166.06135914 163.58802292 163.73453603 163.58201599 161.40771484 C163.57311964 156.54958587 163.57546901 151.6916216 163.58544922 146.83349609 C163.59694472 140.63691095 163.57669998 134.44089519 163.54753208 128.24438477 C163.5291068 123.4451136 163.52947499 118.64597738 163.5351696 113.84667969 C163.53532198 111.56314291 163.52934703 109.27959649 163.51687813 106.99609375 C163.43973289 90.55745449 163.7067761 76.43923061 175.03149414 63.38818359 C178.68910188 59.70897581 182.63296014 56.62654712 186.90649414 53.70068359 C190.40455341 51.11211974 191.70934906 49.4821266 192.36743164 45.20458984 C192.43852767 41.10234908 192.38548261 38.95456515 190.15649414 35.38818359 C186.35009419 31.80568953 182.98734307 32.23741416 178.0040741 32.23428345 C177.16468129 32.22990119 176.32528848 32.22551894 175.46045953 32.22100389 C172.63151508 32.20758759 169.8026018 32.20143071 166.97363281 32.1953125 C164.95191811 32.18741383 162.93020483 32.17914503 160.90849304 32.17053223 C154.25549674 32.14428737 147.60249406 32.12900328 140.94946289 32.11474609 C138.66195484 32.10938764 136.37444682 32.10401014 134.08693886 32.09861374 C124.5743308 32.07698243 115.06172446 32.05824418 105.54909801 32.04699135 C91.9012126 32.03074228 78.25361146 31.99754394 64.60583323 31.9405905 C55.01768363 31.90193764 45.4296102 31.88236424 35.84138471 31.87707078 C30.11058543 31.87341128 24.38008918 31.86132613 18.64937401 31.82896805 C13.25915636 31.79896905 7.86942638 31.79254647 2.47914314 31.80435181 C0.49939027 31.80457322 -1.48038471 31.79621256 -3.46006012 31.77869797 C-6.16067682 31.75610315 -8.85951063 31.76425569 -11.56013489 31.78018188 C-12.34574179 31.7662998 -13.13134869 31.75241771 -13.94076186 31.73811495 C-17.92649937 31.79613079 -19.75846876 32.22273223 -22.9276228 34.71915245 C-25.55043894 38.14922548 -26.04172683 40.06814643 -25.96850586 44.38818359 C-24.29016192 51.0216382 -19.90099729 54.28561251 -14.63647461 58.25927734 C-3.69578559 66.98940255 1.45363833 76.669971 3.03149414 90.38818359 C3.40008076 97.18567109 3.31351422 104.00122028 3.29711914 110.80615234 C3.29846955 112.79234362 3.30041319 114.77853457 3.30291748 116.76472473 C3.3058545 120.9160173 3.30161936 125.0672234 3.29223633 129.21850586 C3.28088013 134.49548634 3.28738608 139.77226245 3.29938126 145.04923534 C3.30667043 149.14947498 3.30427921 153.24966764 3.29912567 157.34990883 C3.29780665 159.29323667 3.29937437 161.23656901 3.30408478 163.17989159 C3.37206388 199.11934448 -8.19558673 224.64272288 -26.39819336 255.32177734 C-30.02890204 261.4519444 -33.50884049 267.66030206 -36.96850586 273.88818359 C-42.10402532 283.11792893 -47.37064228 292.26057218 -52.71850586 301.36865234 C-57.49675043 309.52793158 -62.12033881 317.76753013 -66.71630859 326.03051758 C-70.72925239 333.22646945 -74.85089603 340.35075488 -79.03100586 347.45068359 C-84.29386874 356.40018852 -89.31122069 365.45768937 -94.21923828 374.60595703 C-98.13641599 381.89455904 -102.18785708 389.09337232 -106.31982422 396.26196289 C-110.34602806 403.2602776 -114.25680064 410.3184871 -118.15600586 417.38818359 C-123.56590373 427.17622001 -129.11338113 436.87235926 -134.78100586 446.51318359 C-135.14434021 447.13147034 -135.50767456 447.74975708 -135.88201904 448.38677979 C-139.18193726 453.9985072 -142.4919434 459.60397851 -145.84350586 465.18505859 C-166.99319428 500.47430723 -184.10742165 538.27268723 -173.96850586 580.38818359 C-165.34298237 612.70352512 -143.64187224 639.39182184 -114.96850586 656.38818359 C-92.45318089 668.74383196 -68.18244464 668.69612788 -43.22562814 668.67895103 C-39.47765428 668.67853853 -35.72971008 668.68962272 -31.98175049 668.69906616 C-24.65858803 668.715584 -17.33545779 668.72117149 -10.01227824 668.72229092 C-4.051746 668.72324573 1.90877574 668.72737748 7.86930466 668.73369217 C24.81796884 668.75127891 41.76660783 668.76053499 58.7152812 668.75903122 C59.62642346 668.75895131 60.53756573 668.7588714 61.47631836 668.75878906 C62.38859008 668.7587073 63.30086181 668.75862554 64.24077813 668.7585413 C79.01388837 668.75772898 93.78689652 668.77685973 108.55997725 668.8050658 C123.77734424 668.83388784 138.99466158 668.84760101 154.21205652 668.84587824 C162.7359953 668.84521758 171.25982701 668.85056667 179.783741 668.87223434 C187.04231153 668.89056933 194.30072645 668.89469353 201.55931027 668.8812155 C205.25229183 668.87474745 208.94497595 668.87434077 212.63792801 668.891922 C248.54101567 669.0519476 278.21354566 663.2816381 305.03149414 638.38818359 C305.83079346 637.64665039 305.83079346 637.64665039 306.64624023 636.89013672 C313.31878364 630.62290647 319.16212001 624.18140567 324.03149414 616.38818359 C324.38308594 615.8485498 324.73467773 615.30891602 325.09692383 614.75292969 C336.39312444 597.40416123 342.2652129 579.17356212 343.03149414 558.38818359 C343.07274414 557.41365234 343.11399414 556.43912109 343.15649414 555.43505859 C343.98605805 517.48250996 325.69052287 486.53913785 306.62207031 455.08520508 C301.35570712 446.35673558 296.42033684 437.44798256 291.46508789 428.54052734 C288.38467652 423.00609787 285.25050012 417.50447153 282.09399414 412.01318359 C276.75697958 402.71971284 271.54766086 393.35727163 266.36962891 383.97460938 C265.77722412 382.9032373 265.18481934 381.83186523 264.57446289 380.72802734 C263.70893799 379.15577393 263.70893799 379.15577393 262.82592773 377.55175781 C261.58987813 375.37261076 260.30846774 373.21878052 258.9909668 371.08789062 C258.34047363 370.03327637 257.68998047 368.97866211 257.01977539 367.89208984 C256.42334229 366.95308838 255.82690918 366.01408691 255.21240234 365.04663086 C253.81129182 361.8924666 253.80269152 360.58807911 255.03149414 357.38818359 C256.51855469 355.79833984 256.51855469 355.79833984 258.41821289 354.45068359 C259.45558594 353.69658203 259.45558594 353.69658203 260.51391602 352.92724609 C261.2415918 352.41935547 261.96926758 351.91146484 262.71899414 351.38818359 C264.14063835 350.3688427 265.56122704 349.34802797 266.98071289 348.32568359 C267.66439941 347.83712891 268.34808594 347.34857422 269.05249023 346.84521484 C271.81859742 344.80868293 274.42340828 342.62251227 277.03149414 340.38818359 C280.16941259 343.28883437 282.25845362 346.17137317 284.35961914 349.88427734 C284.98618408 350.98521729 285.61274902 352.08615723 286.25830078 353.22045898 C286.93295037 354.42205918 287.60734089 355.62380486 288.28149414 356.82568359 C288.9913165 358.0803761 289.70152882 359.33484806 290.41210938 360.58911133 C297.05961564 372.34716529 303.57476944 384.17898412 310.0776825 396.01741028 C313.60793567 402.44202506 317.16012483 408.85437211 320.71899414 415.26318359 C321.33766357 416.37741699 321.95633301 417.49165039 322.59375 418.63964844 C326.5789493 425.80553065 330.6071607 432.9458944 334.65649414 440.07568359 C339.66722328 448.90195724 344.5426272 457.79526509 349.3503418 466.73364258 C352.25993613 472.13926906 355.21457231 477.51307061 358.24121094 482.85400391 C376.91144208 515.90578869 379.43338734 554.69943447 370.21899414 591.32568359 C369.52232255 593.68967036 368.79288574 596.04424086 368.03149414 598.38818359 C367.83217285 599.01176758 367.63285156 599.63535156 367.42749023 600.27783203 C360.67888713 620.98601678 348.96735295 638.65636992 334.03149414 654.38818359 C333.32814941 655.14035156 333.32814941 655.14035156 332.6105957 655.90771484 C307.70726055 682.40679769 273.45405042 698.10739356 236.96568441 699.50566888 C228.68465948 699.6860821 220.40207872 699.67455997 212.11953044 699.66429198 C208.34702024 699.66180065 204.57453369 699.67086855 200.80203247 699.67832947 C193.43073897 699.69101332 186.059482 699.69287801 178.68817942 699.6905292 C172.68855538 699.68873841 166.68894234 699.69051191 160.68931961 699.69475365 C159.83192665 699.69534884 158.97453368 699.69594402 158.09115911 699.69655725 C156.34872574 699.69776914 154.60629238 699.69898328 152.86385901 699.70019963 C136.55909716 699.71105131 120.25435603 699.70892422 103.94959302 699.70281478 C89.07950256 699.69765041 74.20947771 699.70889265 59.33940022 699.727913 C44.02259319 699.74735251 28.7058171 699.75553656 13.38899767 699.75178975 C4.80918952 699.7498866 -3.77056287 699.75227782 -12.35036087 699.76650429 C-19.65649066 699.7784975 -26.96253036 699.77973519 -34.26866157 699.76771412 C-37.9858959 699.7618799 -41.70296612 699.76057154 -45.4201889 699.77271652 C-65.38707673 699.83351103 -85.59222564 699.61002607 -104.84350586 693.63818359 C-105.69879883 693.38214355 -106.5540918 693.12610352 -107.43530273 692.86230469 C-145.51832625 681.08383041 -175.22986873 653.2741208 -193.94116211 618.58496094 C-211.94918499 584.27364956 -213.29884175 543.02627858 -201.96850586 506.38818359 C-194.18361823 483.99451388 -181.25970547 463.48973995 -169.48657227 443.03320312 C-161.4070811 428.95581372 -153.50310415 414.77937285 -145.62988281 400.5859375 C-130.62670126 373.54126143 -115.41055249 346.61858006 -100.05000305 319.77552795 C-97.67117596 315.61800533 -95.29555413 311.4586642 -92.92163086 307.29833984 C-85.85175628 294.91021588 -78.75507504 282.53812226 -71.61938477 270.18774414 C-66.30512483 260.98450738 -61.02237074 251.76351107 -55.76000977 242.53051758 C-52.69151708 237.14759516 -49.61554077 231.76962053 -46.50366211 226.41162109 C-37.34381819 210.61458995 -29.69379356 196.96747226 -29.64624023 178.27612305 C-29.63631042 177.32030334 -29.62638062 176.36448364 -29.6161499 175.37969971 C-29.58720663 172.2535911 -29.57336022 169.12768475 -29.56225586 166.00146484 C-29.5566011 164.92714895 -29.55094635 163.85283306 -29.54512024 162.74596214 C-29.51527134 157.07094737 -29.49672241 151.39603268 -29.48803711 145.72094727 C-29.47703006 139.86988511 -29.42885895 134.01974494 -29.3720932 128.16897297 C-29.33482887 123.65560712 -29.32442911 119.14246444 -29.32136536 114.62895775 C-29.31532308 112.47159929 -29.2993021 110.31424426 -29.272995 108.15703773 C-29.23881464 105.14132737 -29.24264298 102.12788692 -29.25561523 99.11206055 C-29.23718567 98.22721481 -29.2187561 97.34236908 -29.19976807 96.43070984 C-29.27556851 90.79467923 -30.47136786 87.87080626 -34.40946198 83.80913067 C-36.68263911 81.73730676 -39.01976591 79.81186669 -41.46850586 77.95068359 C-50.29388843 70.85928541 -55.85338462 62.36056365 -58.78100586 51.32568359 C-58.84288086 50.35630859 -58.90475586 49.38693359 -58.96850586 48.38818359 C-59.0187793 47.67533203 -59.06905273 46.96248047 -59.12084961 46.22802734 C-59.62268996 33.56157684 -55.63095692 22.70029275 -47.08569336 13.32177734 C-33.64682147 0.72623547 -17.38788605 -0.05922505 0 0 Z " fill="#F2EDE0" transform="translate(427.968505859375,156.61181640625)"/>
<path d="M0 0 C1.9945661 3.31871456 2.21603637 5.74407614 2.125 9.5859375 C2.09913818 11.21885742 2.09913818 11.21885742 2.07275391 12.88476562 C2.04874512 14.03654297 2.02473633 15.18832031 2 16.375 C1.71471369 50.62806436 14.2494246 76.63956674 38 101 C62.66998648 125.75047583 92.54489617 132.20347112 126.3901004 132.29053529 C129.17436394 132.29429289 131.95861308 132.29268374 134.74287772 132.29076743 C138.49085158 132.29035493 142.23879578 132.30143913 145.98675537 132.31088257 C153.30991783 132.32740041 160.63304807 132.3329879 167.95622762 132.33410732 C173.91675986 132.33506214 179.8772816 132.33919389 185.83781052 132.34550858 C202.7864747 132.36309531 219.73511369 132.3723514 236.68378706 132.37084763 C237.59492932 132.37076772 238.50607159 132.3706878 239.44482422 132.37060547 C240.35709594 132.37052371 241.26936767 132.37044195 242.20928399 132.37035771 C256.98239423 132.36954539 271.75540238 132.38867613 286.52848311 132.4168822 C301.7458501 132.44570424 316.96316744 132.45941741 332.18056238 132.45769465 C340.70450116 132.45703399 349.22833287 132.46238307 357.75224686 132.48405075 C365.01081738 132.50238574 372.26923231 132.50650993 379.52781613 132.4930319 C383.22079769 132.48656385 386.91348181 132.48615718 390.60643387 132.5037384 C429.89683423 132.67886179 459.64362884 124.98491726 487.9777832 97.19848633 C491.89581237 93.3082232 495.61681813 89.37823536 499 85 C499.66 85.33 500.32 85.66 501 86 C500.41992188 86.64066406 499.83984375 87.28132812 499.2421875 87.94140625 C498.46101563 88.80636719 497.67984375 89.67132812 496.875 90.5625 C496.04484375 91.4803125 495.2146875 92.398125 494.359375 93.34375 C492.55034568 95.38040553 490.82758463 97.43927682 489.125 99.5625 C470.45556259 121.48103839 441.93398765 132.3850926 414 135 C404.81484093 135.49414828 395.61171297 135.41773318 386.41618335 135.39217401 C382.74392599 135.38529523 379.0717088 135.3959079 375.39945984 135.40411377 C368.23109042 135.41736177 361.06281594 135.41461326 353.894443 135.40587585 C348.05983743 135.39906259 342.22525821 135.3981982 336.3906498 135.4014473 C335.13847439 135.40213684 335.13847439 135.40213684 333.86100251 135.40284032 C332.16438974 135.40379964 330.46777697 135.40477228 328.77116422 135.4057581 C312.90988585 135.41428624 297.04865974 135.40451931 281.18738995 135.388357 C267.62449357 135.3749636 254.06167428 135.37727887 240.4987793 135.39111328 C224.69358296 135.40722767 208.8884323 135.41345476 193.08322889 135.40427649 C191.39241843 135.403321 189.70160797 135.40237788 188.0107975 135.4014473 C187.17920841 135.40098447 186.34761932 135.40052164 185.49083057 135.40004479 C179.67550302 135.39747185 173.86020482 135.4017891 168.04488182 135.40888596 C160.94010544 135.41736696 153.83542827 135.41488437 146.73066302 135.39904372 C143.11669958 135.39124744 139.50290052 135.3879181 135.8889389 135.39799118 C95.06016679 135.50205673 63.9661165 128.84126228 34 100 C33.36835938 99.43152344 32.73671875 98.86304688 32.0859375 98.27734375 C15.63913363 83.03871742 2.76065163 59.28820215 0 37 C-0.16242188 35.95392578 -0.16242188 35.95392578 -0.328125 34.88671875 C-1.11605144 28.88396334 -1.10200133 22.85676881 -1.125 16.8125 C-1.12967285 15.95672363 -1.1343457 15.10094727 -1.13916016 14.21923828 C-1.1269165 9.37357585 -0.81461288 4.77776922 0 0 Z " fill="#FDFCF7" transform="translate(250,693)"/>
<path d="M0 0 C0.83716696 -0.00538554 1.67433393 -0.01077108 2.53686959 -0.01631981 C5.34048979 -0.03062086 8.14363928 -0.02349039 10.94728088 -0.01637268 C12.9579659 -0.02207512 14.96864768 -0.02903889 16.97932434 -0.03717041 C22.44004736 -0.05513075 27.90060994 -0.05392802 33.36135364 -0.04822803 C37.91914279 -0.04514036 42.47690093 -0.05122392 47.03468567 -0.05726677 C57.78633863 -0.07131981 68.53791214 -0.06974418 79.28956604 -0.05836487 C90.38397734 -0.04688231 101.47814695 -0.06095996 112.5725264 -0.08776134 C122.09622636 -0.1099075 131.6198504 -0.11655817 141.1435743 -0.11068493 C146.83237212 -0.10731164 152.52101499 -0.10975525 158.20979118 -0.12693596 C163.55899647 -0.14238568 168.90784328 -0.1384713 174.2570343 -0.11963081 C176.22022495 -0.1159395 178.18344204 -0.11906914 180.14660835 -0.1295166 C182.82683207 -0.14269107 185.50586288 -0.13121069 188.18603516 -0.11352539 C188.96279191 -0.1231304 189.73954866 -0.1327354 190.5398435 -0.14263147 C195.72092163 -0.07229745 198.67900546 1.09158363 202.6565094 4.38768005 C205.5789991 8.7714146 206.2160334 12.16545605 205.6565094 17.38768005 C203.7655911 22.64023088 200.98706383 25.11570559 196.6565094 28.38768005 C195.9965094 28.05768005 195.3365094 27.72768005 194.6565094 27.38768005 C196.15390523 26.21580505 197.65130107 25.04393005 199.1486969 23.87205505 C202.11614615 20.95073196 202.9604935 18.04779718 203.0315094 13.95018005 C202.9630995 10.48977939 202.69187233 9.44426075 200.7815094 6.38768005 C196.97510945 2.80518599 193.61235833 3.23691062 188.62908936 3.23377991 C187.78969655 3.22939765 186.95030374 3.2250154 186.08547479 3.22050035 C183.25653034 3.20708405 180.42761706 3.20092717 177.59864807 3.19480896 C175.57693337 3.18691029 173.55522009 3.17864149 171.5335083 3.17002869 C164.880512 3.14378383 158.22750931 3.12849974 151.57447815 3.11424255 C149.28697009 3.1088841 146.99946208 3.1035066 144.71195412 3.0981102 C135.19934606 3.07647889 125.68673971 3.05774064 116.17411327 3.04648781 C102.52622786 3.03023874 88.87862672 2.9970404 75.23084849 2.94008696 C65.64269888 2.9014341 56.05462546 2.8818607 46.46639997 2.87656724 C40.73560069 2.87290774 35.00510444 2.86082259 29.27438927 2.82846451 C23.88417162 2.79846551 18.49444164 2.79204293 13.1041584 2.80384827 C11.12440552 2.80406968 9.14463055 2.79570902 7.16495514 2.77819443 C4.46433844 2.75559961 1.76550463 2.76375215 -0.93511963 2.77967834 C-1.72072653 2.76579626 -2.50633343 2.75191417 -3.31574661 2.73761141 C-7.30148411 2.79562725 -9.1334535 3.22222869 -12.30260754 5.71864891 C-14.92542368 9.14872194 -15.41671157 11.06764289 -15.3434906 15.38768005 C-13.66514666 22.02113466 -9.27598203 25.28510897 -4.01145935 29.2587738 C6.92768044 37.9876628 12.08170706 47.67022368 13.6565094 61.38768005 C14.02542064 68.22032743 13.93853599 75.07105186 13.9221344 81.91111755 C13.9234845 83.90449572 13.9254279 85.89787356 13.92793274 87.89125061 C13.93086913 92.05513159 13.92663529 96.21892634 13.91725159 100.38279724 C13.90587293 105.68697691 13.91241603 110.99095376 13.92439651 116.29512596 C13.93166811 120.40811149 13.92930275 124.52104997 13.92414093 128.63403702 C13.92281827 130.58821767 13.92440291 132.54240276 13.92910004 134.49657822 C13.94879906 144.99546383 13.74963759 155.05854744 11.6565094 165.38768005 C11.3265094 165.38768005 10.9965094 165.38768005 10.6565094 165.38768005 C10.66317123 164.08635132 10.66983307 162.78502258 10.67669678 161.44425964 C10.73766672 149.14532676 10.78255817 136.84642478 10.81194592 124.54737473 C10.82756263 118.22519859 10.84872783 111.90314503 10.88282776 105.58103943 C10.91556373 99.47318069 10.93339242 93.36543944 10.94114113 87.25749969 C10.94665913 84.93405052 10.9574341 82.61060735 10.97369957 80.28720856 C11.39604229 55.66170593 11.39604229 55.66170593 -0.74583435 34.94236755 C-3.8114908 32.14870168 -6.94547815 29.47923883 -10.21458435 26.92674255 C-14.31798613 23.713605 -16.80612942 20.69809029 -17.65989685 15.4384613 C-17.96192217 10.32351644 -16.75342812 7.35058041 -13.3434906 3.38768005 C-9.0844171 0.09017835 -5.19496247 -0.04008018 0 0 Z " fill="#F8F4EF" transform="translate(417.34349060058594,185.61231994628906)"/>
<path d="M0 0 C2.09654717 2.09654717 2.76062 3.54233289 3.875 6.25 C7.91556863 15.47718945 14.33601159 23.08970692 22.8125 28.625 C26.89634073 31.66786172 29.49121468 35.04886298 30.36222458 40.10103226 C30.50396205 42.48227 30.51800747 44.8320386 30.48583984 47.21728516 C30.48963654 48.11426117 30.49343323 49.01123718 30.49734497 49.93539429 C30.50472503 52.88697831 30.48339348 55.83756655 30.4609375 58.7890625 C30.45855017 60.85541672 30.45764836 62.92177313 30.4581604 64.98812866 C30.45503607 69.31725684 30.43850659 73.64605303 30.41162109 77.97509766 C30.3777701 83.49240436 30.36998935 89.00934456 30.37151146 94.52674294 C30.37096418 98.79588242 30.35993794 103.06494362 30.34550858 107.33405685 C30.33919315 109.36638167 30.33521415 111.39871527 30.33372116 113.43104935 C30.28901088 142.49894376 20.92404721 162.56812785 6 187 C4.99836745 188.66568605 3.99768487 190.33194644 3 192 C2.34 191.67 1.68 191.34 1 191 C1.56545532 189.99755249 1.56545532 189.99755249 2.14233398 188.97485352 C11.31927807 172.71158665 11.31927807 172.71158665 20.25 156.3125 C20.60763428 155.65000244 20.96526855 154.98750488 21.33374023 154.30493164 C26.19746603 145.1136482 27.14171483 136.45371005 27.20874023 126.22851562 C27.21852402 125.273134 27.2283078 124.31775238 27.23838806 123.3334198 C27.26815643 120.19104376 27.28966812 117.04870937 27.30859375 113.90625 C27.31516558 112.82918289 27.3217374 111.75211578 27.32850838 110.64241028 C27.36101039 104.94798087 27.38549105 99.25356955 27.4050293 93.55908203 C27.42287884 88.85275186 27.45777139 84.1470167 27.50756836 79.44091797 C27.56773925 73.74639155 27.59849886 68.05241888 27.60820198 62.35758972 C27.61675641 60.19184409 27.63557409 58.02611328 27.6649456 55.86054993 C27.70385538 52.83020315 27.704896 49.80202162 27.69702148 46.77148438 C27.71702209 45.88192551 27.73702271 44.99236664 27.75762939 44.07585144 C27.69182128 38.42384056 26.51214798 35.49145247 22.55960178 31.41927338 C20.28514235 29.34946315 17.94844135 27.42345614 15.5 25.5625 C8.52716017 19.98044369 3.13994218 13.46340737 0 5 C-0.25 2 -0.25 2 0 0 Z " fill="#FDFBF6" transform="translate(371,209)"/>
<path d="M0 0 C0.66 0 1.32 0 2 0 C1.72285156 1.14597656 1.44570313 2.29195312 1.16015625 3.47265625 C0.79410461 5.0025644 0.42822853 6.53251457 0.0625 8.0625 C-0.11990234 8.81466797 -0.30230469 9.56683594 -0.49023438 10.34179688 C-6.25857745 34.5688378 -2.10942327 58.07937472 10.61328125 79.265625 C19.61460612 93.64726229 31.38660547 102.08265657 46 110 C43 111 43 111 40.7578125 110.171875 C19.7742695 98.83951647 5.07726654 79.94702937 -2.4375 57.375 C-7.71074439 38.13608555 -7.11711797 18.64007086 0 0 Z " fill="#33BB51" transform="translate(285,678)"/>
<path d="M0 0 C9.11801947 -0.06847788 18.20231738 0.13140869 27.3125 0.5 C28.54162109 0.54769531 29.77074219 0.59539063 31.03710938 0.64453125 C34.02483488 0.76078516 37.01245123 0.87930393 40 1 C39.67 1.66 39.34 2.32 39 3 C29.76 3 20.52 3 11 3 C17.11620803 5.2180246 17.11620803 5.2180246 23.2355957 7.42724609 C23.99960693 7.70648926 24.76361816 7.98573242 25.55078125 8.2734375 C26.33106689 8.55622559 27.11135254 8.83901367 27.9152832 9.13037109 C30 10 30 10 33 12 C27.2487499 11.46783305 22.41806661 10.31220599 17.0625 8.1875 C16.37027344 7.92050293 15.67804687 7.65350586 14.96484375 7.37841797 C9.9035058 5.40814526 4.92681403 3.28744937 0 1 C0 0.67 0 0.34 0 0 Z " fill="#31B54F" transform="translate(590,644)"/>
<path d="M0 0 C-0.33 0.66 -0.66 1.32 -1 2 C-2.93909458 2.62561003 -4.90304515 3.17479174 -6.875 3.6875 C-17.31961336 6.79451451 -25.22931041 11.62567302 -31 21 C-31.66 20.67 -32.32 20.34 -33 20 C-25.78654365 9.10909531 -13.87942226 -0.84818692 0 0 Z " fill="#FCF8F4" transform="translate(408,158)"/>
<path d="M0 0 C0.66 0.33 1.32 0.66 2 1 C0.625 2.5 0.625 2.5 -1 4 C-1.66 4 -2.32 4 -3 4 C-3.27070312 4.58265625 -3.54140625 5.1653125 -3.8203125 5.765625 C-4.99208749 7.98501339 -6.34414178 9.76702303 -7.875 11.75 C-12.24544375 18.1235638 -13.44658078 25.55272551 -15 33 C-15.33 33 -15.66 33 -16 33 C-16.83884651 22.04839278 -13.67033907 14.34467472 -6.75 5.91796875 C-4.68734911 3.65734021 -2.51077564 1.74993454 0 0 Z " fill="#FAF8F3" transform="translate(609,215)"/>
<path d="M0 0 C4.84824868 0.41556417 6.88036862 2.37448245 10 6 C12.47934039 9.54191484 12.36570056 12.75787349 12 17 C10.1090817 22.25255082 7.33055443 24.72802554 3 28 C2.34 27.67 1.68 27.34 1 27 C2.49739583 25.828125 3.99479167 24.65625 5.4921875 23.484375 C8.45963675 20.5630519 9.30398411 17.66011713 9.375 13.5625 C9.29360443 10.25783991 9.03943739 9.06718963 7.3125 6.125 C5.00944359 4.00867789 2.72658741 2.51477078 0 1 C0 0.67 0 0.34 0 0 Z " fill="#FBF8F4" transform="translate(611,186)"/>
<path d="M0 0 C-0.33 0.66 -0.66 1.32 -1 2 C-3.28515625 2.6328125 -3.28515625 2.6328125 -6.0625 3.125 C-6.98160156 3.29257812 -7.90070312 3.46015625 -8.84765625 3.6328125 C-9.91306641 3.81457031 -9.91306641 3.81457031 -11 4 C-10.01 5.32 -9.02 6.64 -8 8 C-11.36720387 6.60667426 -12.9859524 5.0210714 -15 2 C-12.10314264 -0.89685736 -3.85727068 -0.09643177 0 0 Z " fill="#2FC54B" transform="translate(634,508)"/>
<path d="M0 0 C3.96 0 7.92 0 12 0 C11.67 1.65 11.34 3.3 11 5 C7.27566618 3.7874262 3.62197194 2.49140021 0 1 C0 0.67 0 0.34 0 0 Z " fill="#3CC35B" transform="translate(590,644)"/>
<path d="M0 0 C1.67542976 0.28604898 3.34385343 0.61781233 5 1 C4.34 1.66 3.68 2.32 3 3 C3.99 4.32 4.98 5.64 6 7 C2.63279613 5.60667426 1.0140476 4.0210714 -1 1 C-0.67 0.67 -0.34 0.34 0 0 Z " fill="#2EAC51" transform="translate(620,509)"/>
</svg>
